<svg version="1.1" id="Layer_1" xmlns:x="ns_extend;" xmlns:i="ns_ai;" xmlns:graph="ns_graphs;" xmlns="http://www.w3.org/2000/svg" xmlns:xlink="http://www.w3.org/1999/xlink" x="0px" y="0px" viewBox="0 0 215 46.2" style="enable-background:new 0 0 215 46.2;" xml:space="preserve">
 <style type="text/css">
  .st0{fill:#414042;}
	.st1{clip-path:url(#SVGID_2_);fill:url(#SVGID_3_);}
 </style>
 <metadata>
  <sfw xmlns="ns_sfw;">
   <slices>
   </slices>
   <sliceSourceBounds bottomLeftOrigin="true" height="85.3" width="237.7" x="88.6" y="-278.5">
   </sliceSourceBounds>
  </sfw>
 </metadata>
 <g>
  <g>
   <path class="st0" d="M156.9,41.1h-4.5V18.6c1.8-0.8,4.5-1.4,7.3-1.4c5.5,0,9.2,3.1,9.2,8.4c0,5.8-3.5,9.1-9.3,9.1
			c-0.1,0-0.2,0-0.2,0v-3.9c2.8,0,5-1.6,5-5c0-2.9-1.9-4.5-4.7-4.5c-0.9,0-2,0.1-2.7,0.4 M211.8,30.8c-1.9,0-2.9-1-2.9-2.8v-6.6h5.9
			v-3.7h-5.9v-6.2h-4.5v16.8c0,5,2.8,6.6,7.1,6.6c1.1,0,2.3-0.1,3.5-0.3v-4.2C214,30.7,212.9,30.8,211.8,30.8z M65.7,18.5
			c-1.4-0.9-2.9-1.2-4.8-1.2c-5.1,0-8.8,3.5-8.8,8.8c0,5.2,3.5,8.7,8.9,8.7c1.7,0,3.4-0.3,4.9-1.2v-4.2c-1.3,1-2.7,1.5-4.2,1.5
			c-3,0-5-2-5-4.8c0-3,2-4.7,4.8-4.7c1.5,0,2.9,0.4,4.3,1.5V18.5z M68.1,34.4h4.5V21.8c0.9-0.3,2.1-0.5,3.1-0.5c2,0,3,1,3,2.9v10.2
			h4.5V23.9c0-5-2.9-6.6-6.5-6.6c-1.8,0-3.3,0.4-4.1,0.7v-8h-4.5V34.4z M96.2,26c0,5.2,3.8,8.7,8.7,8.7c5,0,8.8-3.5,8.8-8.7
			c0-5.2-3.8-8.7-8.8-8.7C100,17.3,96.2,20.8,96.2,26z M109.2,26c0,3-1.8,4.8-4.2,4.8c-2.4,0-4.2-1.8-4.2-4.8c0-3,1.8-4.8,4.2-4.8
			C107.4,21.2,109.2,23,109.2,26z M115.8,34.4h4.5V21.8c0.9-0.3,2.1-0.5,3.2-0.5c2,0,3,1,3,2.9v10.2h4.5V23.9c0-5-2.8-6.6-7.2-6.6
			c-2.5,0-5.6,0.6-8,1.5V34.4z M132.9,26c0,5.2,3.8,8.7,8.7,8.7c5,0,8.8-3.5,8.8-8.7c0-5.2-3.8-8.7-8.8-8.7
			C136.6,17.3,132.9,20.8,132.9,26z M145.8,26c0,3-1.8,4.8-4.2,4.8c-2.4,0-4.2-1.8-4.2-4.8c0-3,1.8-4.8,4.2-4.8
			C144,21.2,145.8,23,145.8,26z M93,17.3c-4.3,0-7.2,1.6-7.2,6.6v10.5h4.5V24.2c0-1.9,1-2.9,3-2.9c1.1,0,2.2,0.1,3.1,0.4v-4.2
			C95.3,17.4,94.1,17.3,93,17.3z M190,33.2c1.3,0.9,3.4,1.4,5.4,1.4c3.9,0,6.6-1.7,6.6-5.3c0-3-1.5-4.7-5.8-5.4
			c-1.6-0.4-2.2-0.8-2.2-1.7c0-0.8,0.6-1.4,2.1-1.4c1.7,0,3.2,0.6,4.8,1.6v-4c-1.5-0.8-2.9-1.2-4.9-1.2c-3.6,0-6.4,1.7-6.4,5.4
			c0,3,1.6,4.5,5.4,5.2c1.8,0.4,2.6,0.8,2.6,1.8c0,1-0.9,1.5-2.3,1.5c-1.7,0-3.8-0.7-5.3-1.9V33.2z M170.8,26c0,5.2,3.8,8.7,8.7,8.7
			c5,0,8.8-3.5,8.8-8.7c0-5.2-3.8-8.7-8.8-8.7C174.6,17.3,170.8,20.8,170.8,26z M183.8,26c0,3-1.8,4.8-4.2,4.8s-4.2-1.8-4.2-4.8
			c0-3,1.8-4.8,4.2-4.8S183.8,23,183.8,26z">
   </path>
   <g>
    <defs>
     <path id="SVGID_1_" d="M27.6,20.6c-0.2,0.1-0.5,0.1-0.7,0L25.8,20c-0.1-0.1-0.2-0.1-0.2-0.2c0,0,0,0,0,0
					c-0.1-0.1-0.1-0.2-0.1-0.3l0-1.3c0-0.2,0.1-0.5,0.3-0.6L38.7,10L20.6,0.2C20.4,0.1,20.1,0,19.8,0c-0.3,0-0.5,0.1-0.7,0.2L1,10
					l20.3,11.8c0.2,0.1,0.3,0.3,0.3,0.6l0,17.2c0,0.2-0.2,0.5-0.3,0.6l-1.1,0.6c-0.1,0-0.2,0.1-0.3,0.1c0,0,0,0,0,0
					c-0.1,0-0.3,0-0.3-0.1l-1.1-0.6c-0.2-0.1-0.3-0.3-0.3-0.6V24.3c0-0.1-0.1-0.2-0.2-0.3L0,13.6V34c0,0.5,0.3,1,0.7,1.2l18.4,10.9
					c0.2,0.1,0.5,0.2,0.7,0.2c0.3,0,0.5-0.1,0.7-0.2L39,35.2c0.4-0.2,0.7-0.8,0.7-1.2V13.6">
     </path>
    </defs>
    <clipPath id="SVGID_2_">
     <use href="#SVGID_1_" style="overflow:visible;">
     </use>
    </clipPath>
    <linearGradient id="SVGID_3_" gradientUnits="userSpaceOnUse" x1="-221.2019" y1="400.0715" x2="-220.2087" y2="399.955" gradientTransform="matrix(20.0905 -16.858 -16.858 -20.0905 11194.4229 4340.8608)">
     <stop offset="0" style="stop-color:#0071B4">
     </stop>
     <stop offset="0.1577" style="stop-color:#0079BD">
     </stop>
     <stop offset="0.6817" style="stop-color:#0091D6">
     </stop>
     <stop offset="1" style="stop-color:#009ADF">
     </stop>
    </linearGradient>
    <polygon class="st1" points="-22.8,19.1 23.3,-19.5 62.4,27.1 16.4,65.8 			">
    </polygon>
   </g>
  </g>
 </g>
</svg>